# xmcd CD database file
# Copyright (C) 1997 Ti Kan
# 
# Track frame offsets:
#     150
#     14895
#     30070
#     41785
#     54610
#     69662
#     82590
#     95505
#     109660
#     124725
# 
# Disc length: 1847 seconds
# 
# Revision: 1
# Processed by: cddbd v1.4b41PL1 Copyright (c) Steve Scherf et al.
# Submitted via: DiscPlay 4.0.3
# 
DISCID=7a07350a
DTITLE=George Strait - Greatest Hits Volume Two
DYEAR=1900
DGENRE=
TTITLE0=Does Fort Worth Ever Cross Your Mind
TTITLE1=The Cowboy Rides Away
TTITLE2=The Fireman
TTITLE3=The Chair
TTITLE4=Your're Something Special To Me
TTITLE5=Nobody In His Right Mind Would've Left Her
TTITLE6=It Ain't Cool To Be Crazy About You
TTITLE7=Ocean Front Property
TTITLE8=All My Ex's Live In Texas
TTITLE9=Am I Blue
EXTD=
EXTT0=
EXTT1=
EXTT2=
EXTT3=
EXTT4=
EXTT5=
EXTT6=
EXTT7=
EXTT8=
EXTT9=
PLAYORDER=
